<svg width="109" height="15" viewBox="0 0 109 15" fill="none" xmlns="http://www.w3.org/2000/svg">
<path fill-rule="evenodd" clip-rule="evenodd" d="M46.8457 7.5C46.8457 9.00665 46.5922 10.3232 46.0853 11.4496C45.5784 12.5713 44.8732 13.4434 43.9699 14.0661C43.0713 14.6887 42.0343 15 40.8591 15C39.6793 15 38.6378 14.6887 37.7345 14.0661C36.8358 13.4387 36.133 12.5642 35.626 11.4425C35.1191 10.3161 34.8656 9.0019 34.8656 7.5C34.8656 5.99335 35.1191 4.67918 35.626 3.55751C36.1376 2.43584 36.8427 1.56369 37.7414 0.941065C38.6401 0.313688 39.6793 0 40.8591 0C42.0343 0 43.0713 0.311312 43.9699 0.933935C44.8732 1.55656 45.5784 2.43108 46.0853 3.55751C46.5922 4.67918 46.8457 5.99335 46.8457 7.5ZM46.0023 7.5C46.0023 6.14544 45.7811 4.97148 45.3387 3.97814C44.9009 2.98479 44.2948 2.21721 43.5206 1.67538C42.7464 1.1288 41.8592 0.855513 40.8591 0.855513C39.8591 0.855513 38.9719 1.12643 38.1977 1.66825C37.4234 2.20532 36.8151 2.97291 36.3726 3.97101C35.9348 4.96435 35.7159 6.14068 35.7159 7.5C35.7159 8.84506 35.9325 10.0166 36.3657 11.0147C36.8036 12.0081 37.4096 12.778 38.1838 13.3246C38.9581 13.8712 39.8498 14.1445 40.8591 14.1445C41.8592 14.1445 42.7464 13.8736 43.5206 13.3317C44.2948 12.7852 44.9009 12.0152 45.3387 11.0219C45.7811 10.0285 46.0023 8.85456 46.0023 7.5Z" fill="url(#paint0_radial_11_35)"/>
<path fill-rule="evenodd" clip-rule="evenodd" d="M0.42909 14.8004C0.610312 14.8004 0.77196 14.683 0.83287 14.5071L2.35104 10.1236C2.37511 10.1283 2.39994 10.1307 2.42531 10.1307H8.42502C8.4504 10.1307 8.47522 10.1283 8.49929 10.1236L10.0175 14.5071C10.0784 14.683 10.24 14.8004 10.4212 14.8004C10.7183 14.8004 10.9253 14.4967 10.8246 14.2088L6.09171 0.682082C5.99042 0.392586 5.72383 0.19962 5.42517 0.19962C5.12651 0.19962 4.85992 0.392587 4.75863 0.682083L0.0257778 14.2088C-0.074958 14.4967 0.132071 14.8004 0.42909 14.8004ZM8.21532 9.30371L5.47135 1.38098C5.46438 1.36086 5.4459 1.34743 5.42517 1.34743C5.40444 1.34743 5.38595 1.36086 5.37899 1.38098L2.63502 9.30371H8.21532Z" fill="url(#paint1_radial_11_35)"/>
<path d="M27.995 0.64125C27.995 0.397344 27.8031 0.19962 27.5664 0.19962C27.3297 0.19962 27.1378 0.397344 27.1378 0.641249V13.1398C27.1378 13.171 27.1133 13.1963 27.083 13.1963C27.0653 13.1963 27.0488 13.1875 27.0385 13.1727L18.1946 0.441489C18.0892 0.289682 17.9191 0.19962 17.7379 0.19962C17.4277 0.19962 17.1763 0.458708 17.1763 0.778311V14.3552C17.1763 14.6011 17.3697 14.8004 17.6084 14.8004C17.847 14.8004 18.0404 14.6011 18.0404 14.3552V1.87444C18.0404 1.84325 18.065 1.81797 18.0952 1.81797C18.1129 1.81797 18.1295 1.82674 18.1398 1.84154L26.9849 14.5607C27.0896 14.7111 27.2582 14.8004 27.4378 14.8004C27.7456 14.8004 27.995 14.5433 27.995 14.2263V0.64125Z" fill="url(#paint2_radial_11_35)"/>
<path d="M52.4153 0.19962C52.0756 0.19962 51.872 0.588781 52.0588 0.881247L56.073 7.16687C56.4939 7.82601 56.7183 8.59778 56.7183 9.38684V14.3516C56.7183 14.5995 56.9132 14.8004 57.1538 14.8004C57.3943 14.8004 57.5893 14.5995 57.5893 14.3516V9.38684C57.5893 8.59778 57.8136 7.82601 58.2346 7.16687L62.2488 0.881247C62.4356 0.588782 62.232 0.19962 61.8922 0.19962C61.748 0.19962 61.6135 0.274681 61.5347 0.399168L57.2286 7.20158C57.2121 7.22764 57.184 7.24335 57.1538 7.24335C57.1236 7.24335 57.0954 7.22764 57.079 7.20158L52.7729 0.399168C52.6941 0.27468 52.5596 0.19962 52.4153 0.19962Z" fill="url(#paint3_radial_11_35)"/>
<path fill-rule="evenodd" clip-rule="evenodd" d="M66.9568 14.5071C66.8959 14.683 66.7342 14.8004 66.553 14.8004C66.256 14.8004 66.049 14.4967 66.1497 14.2088L70.8826 0.682082C70.9839 0.392586 71.2504 0.19962 71.5491 0.19962C71.8478 0.19962 72.1143 0.392586 72.2156 0.682081L76.9485 14.2088C77.0492 14.4967 76.8422 14.8004 76.5452 14.8004C76.364 14.8004 76.2023 14.683 76.1414 14.5071L74.6232 10.1236C74.5992 10.1283 74.5743 10.1307 74.549 10.1307H68.5492C68.5239 10.1307 68.499 10.1283 68.475 10.1236L66.9568 14.5071ZM71.5953 1.38098L74.3392 9.30371H68.759L71.5029 1.38098C71.5099 1.36086 71.5284 1.34743 71.5491 1.34743C71.5698 1.34743 71.5883 1.36086 71.5953 1.38098Z" fill="url(#paint4_radial_11_35)"/>
<path d="M96.5998 9.18956V4.61538H95.7345V9.04945C95.7345 9.23626 95.7189 9.36813 95.6877 9.44506C95.6565 9.51648 95.5993 9.5522 95.5162 9.5522H95.4772L93.2553 4.61538H92.2029V10.3846H93.0682V6.14011L94.9938 10.3846H95.6409C95.9735 10.3846 96.2152 10.2857 96.3659 10.0879C96.5218 9.88461 96.5998 9.58517 96.5998 9.18956Z" fill="url(#paint5_radial_11_35)"/>
<path d="M99.0831 6.38736C99.0831 5.80495 99.2338 5.36538 99.5353 5.06868C99.8367 4.76648 100.317 4.61538 100.978 4.61538H102.817V5.38187H100.978C100.645 5.38187 100.398 5.46429 100.237 5.62912C100.081 5.78846 100.003 6.04121 100.003 6.38736V7.28571H102.459V8.04396H100.003V10.3846H99.0831V6.38736Z" fill="url(#paint6_radial_11_35)"/>
<path d="M104.704 5.38187H106.396V10.3846H107.316V5.38187H109V4.61538H104.704V5.38187Z" fill="url(#paint7_radial_11_35)"/>
<path d="M85.484 10.3846C87.0302 10.3846 88.2836 9.09313 88.2836 7.5C88.2836 5.90687 87.0302 4.61538 85.484 4.61538C83.9379 4.61538 82.6845 5.90687 82.6845 7.5C82.6845 9.09313 83.9379 10.3846 85.484 10.3846Z" fill="url(#paint8_radial_11_35)"/>
<defs>
<radialGradient id="paint0_radial_11_35" cx="0" cy="0" r="1" gradientUnits="userSpaceOnUse" gradientTransform="translate(85.4838 7.5) rotate(90) scale(2.88462 2.79952)">
<stop stop-color="white"/>
<stop offset="1" stop-color="#8F66A9"/>
</radialGradient>
<radialGradient id="paint1_radial_11_35" cx="0" cy="0" r="1" gradientUnits="userSpaceOnUse" gradientTransform="translate(85.4838 7.5) rotate(90) scale(2.88462 2.79952)">
<stop stop-color="white"/>
<stop offset="1" stop-color="#8F66A9"/>
</radialGradient>
<radialGradient id="paint2_radial_11_35" cx="0" cy="0" r="1" gradientUnits="userSpaceOnUse" gradientTransform="translate(85.4838 7.5) rotate(90) scale(2.88462 2.79952)">
<stop stop-color="white"/>
<stop offset="1" stop-color="#8F66A9"/>
</radialGradient>
<radialGradient id="paint3_radial_11_35" cx="0" cy="0" r="1" gradientUnits="userSpaceOnUse" gradientTransform="translate(85.4838 7.5) rotate(90) scale(2.88462 2.79952)">
<stop stop-color="white"/>
<stop offset="1" stop-color="#8F66A9"/>
</radialGradient>
<radialGradient id="paint4_radial_11_35" cx="0" cy="0" r="1" gradientUnits="userSpaceOnUse" gradientTransform="translate(85.4838 7.5) rotate(90) scale(2.88462 2.79952)">
<stop stop-color="white"/>
<stop offset="1" stop-color="#8F66A9"/>
</radialGradient>
<radialGradient id="paint5_radial_11_35" cx="0" cy="0" r="1" gradientUnits="userSpaceOnUse" gradientTransform="translate(85.4838 7.5) rotate(90) scale(2.88462 2.79952)">
<stop stop-color="white"/>
<stop offset="1" stop-color="#8F66A9"/>
</radialGradient>
<radialGradient id="paint6_radial_11_35" cx="0" cy="0" r="1" gradientUnits="userSpaceOnUse" gradientTransform="translate(85.4838 7.5) rotate(90) scale(2.88462 2.79952)">
<stop stop-color="white"/>
<stop offset="1" stop-color="#8F66A9"/>
</radialGradient>
<radialGradient id="paint7_radial_11_35" cx="0" cy="0" r="1" gradientUnits="userSpaceOnUse" gradientTransform="translate(85.4838 7.5) rotate(90) scale(2.88462 2.79952)">
<stop stop-color="white"/>
<stop offset="1" stop-color="#8F66A9"/>
</radialGradient>
<radialGradient id="paint8_radial_11_35" cx="0" cy="0" r="1" gradientUnits="userSpaceOnUse" gradientTransform="translate(85.4838 7.5) rotate(90) scale(2.88462 2.79952)">
<stop stop-color="white"/>
<stop offset="1" stop-color="#8F66A9"/>
</radialGradient>
</defs>
</svg>
